<?xml version="1.0" encoding="utf-8" standalone="yes"?> <svg width="1023" height="1023" viewBox="-1 -1 31 31" xmlns="http://www.w3.org/2000/svg" xmlns:xlink="http://www.w3.org/1999/xlink" shape-rendering="geometricPrecision" id="qr code"><rect id="qr background" fill-opacity="1" fill="rgb(255, 255, 255)" x="-1" y="-1" width="31" height="31" ry="1.3499999999999999"></rect><path fill-opacity="1" fill="rgb(0, 0, 0)" id="qr dark pixels" fill-rule="evenodd" d="M 9 0.4a 0.4,0.4 0 0 1 0.4,-0.4L 9.6 0a 0.4,0.4 0 0 1 0.4,0.4L 10 1.6a 0.4,0.4 0 0 0 0.4,0.4L 10.6 2a 0.4,0.4 0 0 0 0.4,-0.4L 11 1.4a 0.4,0.4 0 0 1 0.4,-0.4L 12.6 1a 0.4,0.4 0 0 1 0.4,0.4L 13 1.6a 0.4,0.4 0 0 1 -0.4,0.4L 12.4 2a 0.4,0.4 0 0 0 -0.4,0.4L 12 3.6a 0.4,0.4 0 0 1 -0.4,0.4L 11.4 4a 0.4,0.4 0 0 1 -0.4,-0.4L 11 3.4a 0.4,0.4 0 0 0 -0.4,-0.4L 10.4 3a 0.4,0.4 0 0 0 -0.4,0.4L 10 3.6a 0.4,0.4 0 0 1 -0.4,0.4L 8.4 4a 0.4,0.4 0 0 1 -0.4,-0.4L 8 3.4a 0.4,0.4 0 0 1 0.4,-0.4L 8.6 3a 0.4,0.4 0 0 0 0.4,-0.4L 9 2.4a 0.4,0.4 0 0 0 -0.4,-0.4L 8.4 2a 0.4,0.4 0 0 1 -0.4,-0.4L 8 1.4a 0.4,0.4 0 0 1 0.4,-0.4L 8.6 1a 0.4,0.4 0 0 0 0.4,-0.4z M 15 0.4a 0.4,0.4 0 0 1 0.4,-0.4L 20.6 0a 0.4,0.4 0 0 1 0.4,0.4L 21 1.6a 0.4,0.4 0 0 1 -0.4,0.4L 20.4 2a 0.4,0.4 0 0 1 -0.4,-0.4L 20 1.4a 0.4,0.4 0 0 0 -0.4,-0.4L 18.4 1a 0.4,0.4 0 0 0 -0.4,0.4L 18 1.6a 0.4,0.4 0 0 1 -0.4,0.4L 17.4 2a 0.4,0.4 0 0 1 -0.4,-0.4L 17 1.4a 0.4,0.4 0 0 0 -0.4,-0.4L 15.4 1a 0.4,0.4 0 0 1 -0.4,-0.4z M 14 2.4a 0.4,0.4 0 0 1 0.4,-0.4L 14.6 2a 0.4,0.4 0 0 1 0.4,0.4L 15 2.6a 0.4,0.4 0 0 1 -0.4,0.4L 14.4 3a 0.4,0.4 0 0 1 -0.4,-0.4z M 16 2.4a 0.4,0.4 0 0 1 0.4,-0.4L 16.6 2a 0.4,0.4 0 0 1 0.4,0.4L 17 2.6a 0.4,0.4 0 0 1 -0.4,0.4L 16.4 3a 0.4,0.4 0 0 1 -0.4,-0.4z M 18 2.4a 0.4,0.4 0 0 1 0.4,-0.4L 18.6 2a 0.4,0.4 0 0 1 0.4,0.4L 19 2.6a 0.4,0.4 0 0 1 -0.4,0.4L 18.4 3a 0.4,0.4 0 0 1 -0.4,-0.4z M 17 3.4a 0.4,0.4 0 0 1 0.4,-0.4L 17.6 3a 0.4,0.4 0 0 1 0.4,0.4L 18 3.6a 0.4,0.4 0 0 1 -0.4,0.4L 17.4 4a 0.4,0.4 0 0 1 -0.4,-0.4z M 19 3.4a 0.4,0.4 0 0 1 0.4,-0.4L 19.6 3a 0.4,0.4 0 0 1 0.4,0.4L 20 3.6a 0.4,0.4 0 0 1 -0.4,0.4L 19.4 4a 0.4,0.4 0 0 1 -0.4,-0.4z M 10 4.4a 0.4,0.4 0 0 1 0.4,-0.4L 10.6 4a 0.4,0.4 0 0 1 0.4,0.4L 11 6.6a 0.4,0.4 0 0 1 -0.4,0.4L 10.4 7a 0.4,0.4 0 0 1 -0.4,-0.4z M 12 4.4a 0.4,0.4 0 0 1 0.4,-0.4L 15.6 4a 0.4,0.4 0 0 1 0.4,0.4L 16 5.6a 0.4,0.4 0 0 1 -0.4,0.4L 15.4 6a 0.4,0.4 0 0 0 -0.4,0.4L 15 6.6a 0.4,0.4 0 0 1 -0.4,0.4L 14.4 7a 0.4,0.4 0 0 1 -0.4,-0.4L 14 6.4a 0.4,0.4 0 0 0 -0.4,-0.4L 13.4 6a 0.4,0.4 0 0 1 -0.4,-0.4L 13 5.4a 0.4,0.4 0 0 0 -0.4,-0.4L 12.4 5a 0.4,0.4 0 0 1 -0.4,-0.4z M 20 4.4a 0.4,0.4 0 0 1 0.4,-0.4L 20.6 4a 0.4,0.4 0 0 1 0.4,0.4L 21 4.6a 0.4,0.4 0 0 1 -0.4,0.4L 20.4 5a 0.4,0.4 0 0 1 -0.4,-0.4z M 8 5.4a 0.4,0.4 0 0 1 0.4,-0.4L 8.6 5a 0.4,0.4 0 0 1 0.4,0.4L 9 6.6a 0.4,0.4 0 0 1 -0.4,0.4L 8.4 7a 0.4,0.4 0 0 1 -0.4,-0.4z M 12 6.4a 0.4,0.4 0 0 1 0.4,-0.4L 12.6 6a 0.4,0.4 0 0 1 0.4,0.4L 13 6.6a 0.4,0.4 0 0 0 0.4,0.4L 13.6 7a 0.4,0.4 0 0 1 0.4,0.4L 14 7.6a 0.4,0.4 0 0 1 -0.4,0.4L 13.4 8a 0.4,0.4 0 0 0 -0.4,0.4L 13 8.6a 0.4,0.4 0 0 1 -0.4,0.4L 12.4 9a 0.4,0.4 0 0 1 -0.4,-0.4z M 16 6.4a 0.4,0.4 0 0 1 0.4,-0.4L 16.6 6a 0.4,0.4 0 0 1 0.4,0.4L 17 7.6a 0.4,0.4 0 0 1 -0.4,0.4L 15.4 8a 0.4,0.4 0 0 1 -0.4,-0.4L 15 7.4a 0.4,0.4 0 0 1 0.4,-0.4L 15.6 7a 0.4,0.4 0 0 0 0.4,-0.4z M 18 6.4a 0.4,0.4 0 0 1 0.4,-0.4L 18.6 6a 0.4,0.4 0 0 1 0.4,0.4L 19 6.6a 0.4,0.4 0 0 0 0.4,0.4L 19.6 7a 0.4,0.4 0 0 0 0.4,-0.4L 20 6.4a 0.4,0.4 0 0 1 0.4,-0.4L 20.6 6a 0.4,0.4 0 0 1 0.4,0.4L 21 7.6a 0.4,0.4 0 0 1 -0.4,0.4L 20.4 8a 0.4,0.4 0 0 0 -0.4,0.4L 20 8.6a 0.4,0.4 0 0 0 0.4,0.4L 20.6 9a 0.4,0.4 0 0 0 0.4,-0.4L 21 8.4a 0.4,0.4 0 0 1 0.4,-0.4L 21.6 8a 0.4,0.4 0 0 1 0.4,0.4L 22 8.6a 0.4,0.4 0 0 0 0.4,0.4L 22.6 9a 0.4,0.4 0 0 1 0.4,0.4L 23 9.6a 0.4,0.4 0 0 0 0.4,0.4L 23.6 10a 0.4,0.4 0 0 0 0.4,-0.4L 24 9.4a 0.4,0.4 0 0 1 0.4,-0.4L 24.6 9a 0.4,0.4 0 0 1 0.4,0.4L 25 10.6a 0.4,0.4 0 0 0 0.4,0.4L 25.6 11a 0.4,0.4 0 0 1 0.4,0.4L 26 11.6a 0.4,0.4 0 0 0 0.4,0.4L 26.6 12a 0.4,0.4 0 0 1 0.4,0.4L 27 12.6a 0.4,0.4 0 0 1 -0.4,0.4L 25.4 13a 0.4,0.4 0 0 1 -0.4,-0.4L 25 12.4a 0.4,0.4 0 0 0 -0.4,-0.4L 22.4 12a 0.4,0.4 0 0 1 -0.4,-0.4L 22 10.4a 0.4,0.4 0 0 0 -0.4,-0.4L 21.4 10a 0.4,0.4 0 0 0 -0.4,0.4L 21 10.6a 0.4,0.4 0 0 1 -0.4,0.4L 20.4 11a 0.4,0.4 0 0 1 -0.4,-0.4L 20 10.4a 0.4,0.4 0 0 0 -0.4,-0.4L 18.4 10a 0.4,0.4 0 0 1 -0.4,-0.4L 18 9.4a 0.4,0.4 0 0 1 0.4,-0.4L 18.6 9a 0.4,0.4 0 0 0 0.4,-0.4L 19 8.4a 0.4,0.4 0 0 0 -0.4,-0.4L 18.4 8a 0.4,0.4 0 0 1 -0.4,-0.4z M 0 8.4a 0.4,0.4 0 0 1 0.4,-0.4L 4.6 8a 0.4,0.4 0 0 1 0.4,0.4L 5 8.6a 0.4,0.4 0 0 1 -0.4,0.4L 1.4 9a 0.4,0.4 0 0 0 -0.4,0.4L 1 9.6a 0.4,0.4 0 0 1 -0.4,0.4L 0.4 10a 0.4,0.4 0 0 1 -0.4,-0.4z M 6 8.4a 0.4,0.4 0 0 1 0.4,-0.4L 10.6 8a 0.4,0.4 0 0 1 0.4,0.4L 11 8.6a 0.4,0.4 0 0 1 -0.4,0.4L 10.4 9a 0.4,0.4 0 0 0 -0.4,0.4L 10 10.6a 0.4,0.4 0 0 0 0.4,0.4L 10.6 11a 0.4,0.4 0 0 0 0.4,-0.4L 11 10.4a 0.4,0.4 0 0 1 0.4,-0.4L 12.6 10a 0.4,0.4 0 0 1 0.4,0.4L 13 10.6a 0.4,0.4 0 0 1 -0.4,0.4L 12.4 11a 0.4,0.4 0 0 0 -0.4,0.4L 12 12.6a 0.4,0.4 0 0 1 -0.4,0.4L 11.4 13a 0.4,0.4 0 0 1 -0.4,-0.4L 11 12.4a 0.4,0.4 0 0 0 -0.4,-0.4L 10.4 12a 0.4,0.4 0 0 0 -0.4,0.4L 10 12.6a 0.4,0.4 0 0 1 -0.4,0.4L 9.4 13a 0.4,0.4 0 0 0 -0.4,0.4L 9 15.6a 0.4,0.4 0 0 1 -0.4,0.4L 7.4 16a 0.4,0.4 0 0 1 -0.4,-0.4L 7 15.4a 0.4,0.4 0 0 1 0.4,-0.4L 7.6 15a 0.4,0.4 0 0 0 0.4,-0.4L 8 14.4a 0.4,0.4 0 0 0 -0.4,-0.4L 7.4 14a 0.4,0.4 0 0 1 -0.4,-0.4L 7 13.4a 0.4,0.4 0 0 0 -0.4,-0.4L 6.4 13a 0.4,0.4 0 0 1 -0.4,-0.4L 6 12.4a 0.4,0.4 0 0 1 0.4,-0.4L 6.6 12a 0.4,0.4 0 0 0 0.4,-0.4L 7 11.4a 0.4,0.4 0 0 1 0.4,-0.4L 7.6 11a 0.4,0.4 0 0 1 0.4,0.4L 8 11.6a 0.4,0.4 0 0 0 0.4,0.4L 8.6 12a 0.4,0.4 0 0 0 0.4,-0.4L 9 11.4a 0.4,0.4 0 0 0 -0.4,-0.4L 8.4 11a 0.4,0.4 0 0 1 -0.4,-0.4L 8 10.4a 0.4,0.4 0 0 0 -0.4,-0.4L 7.4 10a 0.4,0.4 0 0 1 -0.4,-0.4L 7 9.4a 0.4,0.4 0 0 0 -0.4,-0.4L 6.4 9a 0.4,0.4 0 0 1 -0.4,-0.4z M 14 8.4a 0.4,0.4 0 0 1 0.4,-0.4L 14.6 8a 0.4,0.4 0 0 1 0.4,0.4L 15 8.6a 0.4,0.4 0 0 1 -0.4,0.4L 14.4 9a 0.4,0.4 0 0 1 -0.4,-0.4z M 17 8.4a 0.4,0.4 0 0 1 0.4,-0.4L 17.6 8a 0.4,0.4 0 0 1 0.4,0.4L 18 8.6a 0.4,0.4 0 0 1 -0.4,0.4L 17.4 9a 0.4,0.4 0 0 1 -0.4,-0.4z M 23 8.4a 0.4,0.4 0 0 1 0.4,-0.4L 23.6 8a 0.4,0.4 0 0 1 0.4,0.4L 24 8.6a 0.4,0.4 0 0 1 -0.4,0.4L 23.4 9a 0.4,0.4 0 0 1 -0.4,-0.4z M 25 8.4a 0.4,0.4 0 0 1 0.4,-0.4L 25.6 8a 0.4,0.4 0 0 1 0.4,0.4L 26 8.6a 0.4,0.4 0 0 1 -0.4,0.4L 25.4 9a 0.4,0.4 0 0 1 -0.4,-0.4z M 27 8.4a 0.4,0.4 0 0 1 0.4,-0.4L 27.6 8a 0.4,0.4 0 0 1 0.4,0.4L 28 8.6a 0.4,0.4 0 0 1 -0.4,0.4L 27.4 9a 0.4,0.4 0 0 1 -0.4,-0.4z M 5 9.4a 0.4,0.4 0 0 1 0.4,-0.4L 5.6 9a 0.4,0.4 0 0 1 0.4,0.4L 6 9.6a 0.4,0.4 0 0 0 0.4,0.4L 6.6 10a 0.4,0.4 0 0 1 0.4,0.4L 7 10.6a 0.4,0.4 0 0 1 -0.4,0.4L 4.4 11a 0.4,0.4 0 0 1 -0.4,-0.4L 4 10.4a 0.4,0.4 0 0 1 0.4,-0.4L 4.6 10a 0.4,0.4 0 0 0 0.4,-0.4z M 16 9.4a 0.4,0.4 0 0 1 0.4,-0.4L 16.6 9a 0.4,0.4 0 0 1 0.4,0.4L 17 11.6a 0.4,0.4 0 0 1 -0.4,0.4L 16.4 12a 0.4,0.4 0 0 1 -0.4,-0.4L 16 11.4a 0.4,0.4 0 0 0 -0.4,-0.4L 15.4 11a 0.4,0.4 0 0 1 -0.4,-0.4L 15 10.4a 0.4,0.4 0 0 1 0.4,-0.4L 15.6 10a 0.4,0.4 0 0 0 0.4,-0.4z M 28 9.4a 0.4,0.4 0 0 1 0.4,-0.4L 28.6 9a 0.4,0.4 0 0 1 0.4,0.4L 29 9.6a 0.4,0.4 0 0 1 -0.4,0.4L 28.4 10a 0.4,0.4 0 0 1 -0.4,-0.4z M 1 10.4a 0.4,0.4 0 0 1 0.4,-0.4L 2.6 10a 0.4,0.4 0 0 1 0.4,0.4L 3 11.6a 0.4,0.4 0 0 1 -0.4,0.4L 2.4 12a 0.4,0.4 0 0 1 -0.4,-0.4L 2 11.4a 0.4,0.4 0 0 0 -0.4,-0.4L 1.4 11a 0.4,0.4 0 0 1 -0.4,-0.4z M 0 11.4a 0.4,0.4 0 0 1 0.4,-0.4L 0.6 11a 0.4,0.4 0 0 1 0.4,0.4L 1 11.6a 0.4,0.4 0 0 0 0.4,0.4L 1.6 12a 0.4,0.4 0 0 1 0.4,0.4L 2 12.6a 0.4,0.4 0 0 1 -0.4,0.4L 1.4 13a 0.4,0.4 0 0 0 -0.4,0.4L 1 13.6a 0.4,0.4 0 0 1 -0.4,0.4L 0.4 14a 0.4,0.4 0 0 1 -0.4,-0.4z M 14 11.4a 0.4,0.4 0 0 1 0.4,-0.4L 14.6 11a 0.4,0.4 0 0 1 0.4,0.4L 15 11.6a 0.4,0.4 0 0 1 -0.4,0.4L 14.4 12a 0.4,0.4 0 0 1 -0.4,-0.4z M 27 11.4a 0.4,0.4 0 0 1 0.4,-0.4L 27.6 11a 0.4,0.4 0 0 1 0.4,0.4L 28 11.6a 0.4,0.4 0 0 1 -0.4,0.4L 27.4 12a 0.4,0.4 0 0 1 -0.4,-0.4z M 4 12.4a 0.4,0.4 0 0 1 0.4,-0.4L 4.6 12a 0.4,0.4 0 0 1 0.4,0.4L 5 12.6a 0.4,0.4 0 0 1 -0.4,0.4L 4.4 13a 0.4,0.4 0 0 1 -0.4,-0.4z M 17 12.4a 0.4,0.4 0 0 1 0.4,-0.4L 17.6 12a 0.4,0.4 0 0 1 0.4,0.4L 18 12.6a 0.4,0.4 0 0 1 -0.4,0.4L 17.4 13a 0.4,0.4 0 0 1 -0.4,-0.4z M 5 13.4a 0.4,0.4 0 0 1 0.4,-0.4L 5.6 13a 0.4,0.4 0 0 1 0.4,0.4L 6 13.6a 0.4,0.4 0 0 0 0.4,0.4L 6.6 14a 0.4,0.4 0 0 1 0.4,0.4L 7 14.6a 0.4,0.4 0 0 1 -0.4,0.4L 3.4 15a 0.4,0.4 0 0 0 -0.4,0.4L 3 15.6a 0.4,0.4 0 0 0 0.4,0.4L 3.6 16a 0.4,0.4 0 0 1 0.4,0.4L 4 16.6a 0.4,0.4 0 0 0 0.4,0.4L 4.6 17a 0.4,0.4 0 0 0 0.4,-0.4L 5 16.4a 0.4,0.4 0 0 1 0.4,-0.4L 6.6 16a 0.4,0.4 0 0 1 0.4,0.4L 7 16.6a 0.4,0.4 0 0 1 -0.4,0.4L 6.4 17a 0.4,0.4 0 0 0 -0.4,0.4L 6 17.6a 0.4,0.4 0 0 1 -0.4,0.4L 5.4 18a 0.4,0.4 0 0 0 -0.4,0.4L 5 18.6a 0.4,0.4 0 0 0 0.4,0.4L 5.6 19a 0.4,0.4 0 0 1 0.4,0.4L 6 19.6a 0.4,0.4 0 0 0 0.4,0.4L 6.6 20a 0.4,0.4 0 0 1 0.4,0.4L 7 20.6a 0.4,0.4 0 0 1 -0.4,0.4L 5.4 21a 0.4,0.4 0 0 1 -0.4,-0.4L 5 20.4a 0.4,0.4 0 0 0 -0.4,-0.4L 4.4 20a 0.4,0.4 0 0 0 -0.4,0.4L 4 20.6a 0.4,0.4 0 0 1 -0.4,0.4L 2.4 21a 0.4,0.4 0 0 1 -0.4,-0.4L 2 20.4a 0.4,0.4 0 0 1 0.4,-0.4L 2.6 20a 0.4,0.4 0 0 0 0.4,-0.4L 3 19.4a 0.4,0.4 0 0 1 0.4,-0.4L 3.6 19a 0.4,0.4 0 0 0 0.4,-0.4L 4 18.4a 0.4,0.4 0 0 0 -0.4,-0.4L 2.4 18a 0.4,0.4 0 0 1 -0.4,-0.4L 2 17.4a 0.4,0.4 0 0 0 -0.4,-0.4L 1.4 17a 0.4,0.4 0 0 1 -0.4,-0.4L 1 14.4a 0.4,0.4 0 0 1 0.4,-0.4L 4.6 14a 0.4,0.4 0 0 0 0.4,-0.4z M 10 13.4a 0.4,0.4 0 0 1 0.4,-0.4L 10.6 13a 0.4,0.4 0 0 1 0.4,0.4L 11 14.6a 0.4,0.4 0 0 1 -0.4,0.4L 10.4 15a 0.4,0.4 0 0 1 -0.4,-0.4z M 12 13.4a 0.4,0.4 0 0 1 0.4,-0.4L 14.6 13a 0.4,0.4 0 0 1 0.4,0.4L 15 13.6a 0.4,0.4 0 0 0 0.4,0.4L 15.6 14a 0.4,0.4 0 0 0 0.4,-0.4L 16 13.4a 0.4,0.4 0 0 1 0.4,-0.4L 16.6 13a 0.4,0.4 0 0 1 0.4,0.4L 17 13.6a 0.4,0.4 0 0 0 0.4,0.4L 18.6 14a 0.4,0.4 0 0 1 0.4,0.4L 19 14.6a 0.4,0.4 0 0 0 0.4,0.4L 19.6 15a 0.4,0.4 0 0 1 0.4,0.4L 20 15.6a 0.4,0.4 0 0 1 -0.4,0.4L 18.4 16a 0.4,0.4 0 0 1 -0.4,-0.4L 18 15.4a 0.4,0.4 0 0 0 -0.4,-0.4L 17.4 15a 0.4,0.4 0 0 0 -0.4,0.4L 17 15.6a 0.4,0.4 0 0 1 -0.4,0.4L 16.4 16a 0.4,0.4 0 0 1 -0.4,-0.4L 16 15.4a 0.4,0.4 0 0 0 -0.4,-0.4L 14.4 15a 0.4,0.4 0 0 0 -0.4,0.4L 14 15.6a 0.4,0.4 0 0 1 -0.4,0.4L 13.4 16a 0.4,0.4 0 0 0 -0.4,0.4L 13 16.6a 0.4,0.4 0 0 1 -0.4,0.4L 12.4 17a 0.4,0.4 0 0 1 -0.4,-0.4L 12 15.4a 0.4,0.4 0 0 1 0.4,-0.4L 12.6 15a 0.4,0.4 0 0 0 0.4,-0.4L 13 14.4a 0.4,0.4 0 0 0 -0.4,-0.4L 12.4 14a 0.4,0.4 0 0 1 -0.4,-0.4z M 19 13.4a 0.4,0.4 0 0 1 0.4,-0.4L 21.6 13a 0.4,0.4 0 0 1 0.4,0.4L 22 14.6a 0.4,0.4 0 0 1 -0.4,0.4L 20.4 15a 0.4,0.4 0 0 1 -0.4,-0.4L 20 14.4a 0.4,0.4 0 0 0 -0.4,-0.4L 19.4 14a 0.4,0.4 0 0 1 -0.4,-0.4z M 23 13.4a 0.4,0.4 0 0 1 0.4,-0.4L 24.6 13a 0.4,0.4 0 0 1 0.4,0.4L 25 13.6a 0.4,0.4 0 0 0 0.4,0.4L 26.6 14a 0.4,0.4 0 0 1 0.4,0.4L 27 14.6a 0.4,0.4 0 0 1 -0.4,0.4L 24.4 15a 0.4,0.4 0 0 0 -0.4,0.4L 24 15.6a 0.4,0.4 0 0 1 -0.4,0.4L 23.4 16a 0.4,0.4 0 0 1 -0.4,-0.4z M 28 13.4a 0.4,0.4 0 0 1 0.4,-0.4L 28.6 13a 0.4,0.4 0 0 1 0.4,0.4L 29 13.6a 0.4,0.4 0 0 1 -0.4,0.4L 28.4 14a 0.4,0.4 0 0 1 -0.4,-0.4z M 27 15.4a 0.4,0.4 0 0 1 0.4,-0.4L 27.6 15a 0.4,0.4 0 0 1 0.4,0.4L 28 15.6a 0.4,0.4 0 0 1 -0.4,0.4L 27.4 16a 0.4,0.4 0 0 1 -0.4,-0.4z M 10 16.4a 0.4,0.4 0 0 1 0.4,-0.4L 10.6 16a 0.4,0.4 0 0 1 0.4,0.4L 11 17.6a 0.4,0.4 0 0 1 -0.4,0.4L 10.4 18a 0.4,0.4 0 0 0 -0.4,0.4L 10 19.6a 0.4,0.4 0 0 0 0.4,0.4L 10.6 20a 0.4,0.4 0 0 0 0.4,-0.4L 11 18.4a 0.4,0.4 0 0 1 0.4,-0.4L 12.6 18a 0.4,0.4 0 0 1 0.4,0.4L 13 18.6a 0.4,0.4 0 0 1 -0.4,0.4L 12.4 19a 0.4,0.4 0 0 0 -0.4,0.4L 12 20.6a 0.4,0.4 0 0 1 -0.4,0.4L 11.4 21a 0.4,0.4 0 0 0 -0.4,0.4L 11 22.6a 0.4,0.4 0 0 1 -0.4,0.4L 10.4 23a 0.4,0.4 0 0 0 -0.4,0.4L 10 24.6a 0.4,0.4 0 0 1 -0.4,0.4L 9.4 25a 0.4,0.4 0 0 0 -0.4,0.4L 9 25.6a 0.4,0.4 0 0 0 0.4,0.4L 9.6 26a 0.4,0.4 0 0 1 0.4,0.4L 10 27.6a 0.4,0.4 0 0 0 0.4,0.4L 10.6 28a 0.4,0.4 0 0 0 0.4,-0.4L 11 26.4a 0.4,0.4 0 0 1 0.4,-0.4L 12.6 26a 0.4,0.4 0 0 1 0.4,0.4L 13 26.6a 0.4,0.4 0 0 1 -0.4,0.4L 12.4 27a 0.4,0.4 0 0 0 -0.4,0.4L 12 28.6a 0.4,0.4 0 0 1 -0.4,0.4L 8.4 29a 0.4,0.4 0 0 1 -0.4,-0.4L 8 24.4a 0.4,0.4 0 0 1 0.4,-0.4L 8.6 24a 0.4,0.4 0 0 0 0.4,-0.4L 9 23.4a 0.4,0.4 0 0 0 -0.4,-0.4L 8.4 23a 0.4,0.4 0 0 1 -0.4,-0.4L 8 19.4a 0.4,0.4 0 0 1 0.4,-0.4L 8.6 19a 0.4,0.4 0 0 0 0.4,-0.4L 9 17.4a 0.4,0.4 0 0 1 0.4,-0.4L 9.6 17a 0.4,0.4 0 0 0 0.4,-0.4zM 9 21.4a 0.4,0.4 0 0 1 0.4,-0.4L 9.6 21a 0.4,0.4 0 0 1 0.4,0.4L 10 21.6a 0.4,0.4 0 0 1 -0.4,0.4L 9.4 22a 0.4,0.4 0 0 1 -0.4,-0.4z M 14 16.4a 0.4,0.4 0 0 1 0.4,-0.4L 14.6 16a 0.4,0.4 0 0 1 0.4,0.4L 15 16.6a 0.4,0.4 0 0 1 -0.4,0.4L 14.4 17a 0.4,0.4 0 0 1 -0.4,-0.4z M 17 16.4a 0.4,0.4 0 0 1 0.4,-0.4L 17.6 16a 0.4,0.4 0 0 1 0.4,0.4L 18 16.6a 0.4,0.4 0 0 1 -0.4,0.4L 17.4 17a 0.4,0.4 0 0 1 -0.4,-0.4z M 25 16.4a 0.4,0.4 0 0 1 0.4,-0.4L 26.6 16a 0.4,0.4 0 0 1 0.4,0.4L 27 18.6a 0.4,0.4 0 0 1 -0.4,0.4L 26.4 19a 0.4,0.4 0 0 1 -0.4,-0.4L 26 17.4a 0.4,0.4 0 0 0 -0.4,-0.4L 25.4 17a 0.4,0.4 0 0 1 -0.4,-0.4z M 0 17.4a 0.4,0.4 0 0 1 0.4,-0.4L 0.6 17a 0.4,0.4 0 0 1 0.4,0.4L 1 20.6a 0.4,0.4 0 0 1 -0.4,0.4L 0.4 21a 0.4,0.4 0 0 1 -0.4,-0.4z M 7 17.4a 0.4,0.4 0 0 1 0.4,-0.4L 7.6 17a 0.4,0.4 0 0 1 0.4,0.4L 8 17.6a 0.4,0.4 0 0 1 -0.4,0.4L 7.4 18a 0.4,0.4 0 0 1 -0.4,-0.4z M 16 17.4a 0.4,0.4 0 0 1 0.4,-0.4L 16.6 17a 0.4,0.4 0 0 1 0.4,0.4L 17 17.6a 0.4,0.4 0 0 1 -0.4,0.4L 16.4 18a 0.4,0.4 0 0 1 -0.4,-0.4z M 18 17.4a 0.4,0.4 0 0 1 0.4,-0.4L 24.6 17a 0.4,0.4 0 0 1 0.4,0.4L 25 17.6a 0.4,0.4 0 0 1 -0.4,0.4L 23.4 18a 0.4,0.4 0 0 0 -0.4,0.4L 23 18.6a 0.4,0.4 0 0 1 -0.4,0.4L 22.4 19a 0.4,0.4 0 0 1 -0.4,-0.4L 22 18.4a 0.4,0.4 0 0 0 -0.4,-0.4L 21.4 18a 0.4,0.4 0 0 0 -0.4,0.4L 21 18.6a 0.4,0.4 0 0 1 -0.4,0.4L 20.4 19a 0.4,0.4 0 0 1 -0.4,-0.4L 20 18.4a 0.4,0.4 0 0 0 -0.4,-0.4L 19.4 18a 0.4,0.4 0 0 0 -0.4,0.4L 19 18.6a 0.4,0.4 0 0 1 -0.4,0.4L 17.4 19a 0.4,0.4 0 0 1 -0.4,-0.4L 17 18.4a 0.4,0.4 0 0 1 0.4,-0.4L 17.6 18a 0.4,0.4 0 0 0 0.4,-0.4z M 28 17.4a 0.4,0.4 0 0 1 0.4,-0.4L 28.6 17a 0.4,0.4 0 0 1 0.4,0.4L 29 17.6a 0.4,0.4 0 0 1 -0.4,0.4L 28.4 18a 0.4,0.4 0 0 1 -0.4,-0.4z M 6 18.4a 0.4,0.4 0 0 1 0.4,-0.4L 6.6 18a 0.4,0.4 0 0 1 0.4,0.4L 7 18.6a 0.4,0.4 0 0 1 -0.4,0.4L 6.4 19a 0.4,0.4 0 0 1 -0.4,-0.4z M 15 18.4a 0.4,0.4 0 0 1 0.4,-0.4L 15.6 18a 0.4,0.4 0 0 1 0.4,0.4L 16 19.6a 0.4,0.4 0 0 1 -0.4,0.4L 14.4 20a 0.4,0.4 0 0 1 -0.4,-0.4L 14 19.4a 0.4,0.4 0 0 1 0.4,-0.4L 14.6 19a 0.4,0.4 0 0 0 0.4,-0.4z M 23 19.4a 0.4,0.4 0 0 1 0.4,-0.4L 23.6 19a 0.4,0.4 0 0 1 0.4,0.4L 24 19.6a 0.4,0.4 0 0 1 -0.4,0.4L 23.4 20a 0.4,0.4 0 0 1 -0.4,-0.4z M 27 19.4a 0.4,0.4 0 0 1 0.4,-0.4L 27.6 19a 0.4,0.4 0 0 1 0.4,0.4L 28 19.6a 0.4,0.4 0 0 0 0.4,0.4L 28.6 20a 0.4,0.4 0 0 1 0.4,0.4L 29 21.6a 0.4,0.4 0 0 1 -0.4,0.4L 27.4 22a 0.4,0.4 0 0 0 -0.4,0.4L 27 22.6a 0.4,0.4 0 0 1 -0.4,0.4L 25.4 23a 0.4,0.4 0 0 1 -0.4,-0.4L 25 21.4a 0.4,0.4 0 0 1 0.4,-0.4L 25.6 21a 0.4,0.4 0 0 0 0.4,-0.4L 26 20.4a 0.4,0.4 0 0 1 0.4,-0.4L 26.6 20a 0.4,0.4 0 0 0 0.4,-0.4z M 17 20.4a 0.4,0.4 0 0 1 0.4,-0.4L 17.6 20a 0.4,0.4 0 0 1 0.4,0.4L 18 20.6a 0.4,0.4 0 0 0 0.4,0.4L 18.6 21a 0.4,0.4 0 0 1 0.4,0.4L 19 21.6a 0.4,0.4 0 0 1 -0.4,0.4L 18.4 22a 0.4,0.4 0 0 0 -0.4,0.4L 18 22.6a 0.4,0.4 0 0 1 -0.4,0.4L 14.4 23a 0.4,0.4 0 0 0 -0.4,0.4L 14 23.6a 0.4,0.4 0 0 1 -0.4,0.4L 13.4 24a 0.4,0.4 0 0 0 -0.4,0.4L 13 24.6a 0.4,0.4 0 0 1 -0.4,0.4L 12.4 25a 0.4,0.4 0 0 1 -0.4,-0.4L 12 23.4a 0.4,0.4 0 0 1 0.4,-0.4L 12.6 23a 0.4,0.4 0 0 0 0.4,-0.4L 13 22.4a 0.4,0.4 0 0 0 -0.4,-0.4L 12.4 22a 0.4,0.4 0 0 1 -0.4,-0.4L 12 21.4a 0.4,0.4 0 0 1 0.4,-0.4L 14.6 21a 0.4,0.4 0 0 1 0.4,0.4L 15 21.6a 0.4,0.4 0 0 0 0.4,0.4L 15.6 22a 0.4,0.4 0 0 0 0.4,-0.4L 16 21.4a 0.4,0.4 0 0 1 0.4,-0.4L 16.6 21a 0.4,0.4 0 0 0 0.4,-0.4z M 19 20.4a 0.4,0.4 0 0 1 0.4,-0.4L 19.6 20a 0.4,0.4 0 0 1 0.4,0.4L 20 20.6a 0.4,0.4 0 0 1 -0.4,0.4L 19.4 21a 0.4,0.4 0 0 1 -0.4,-0.4z M 19 22.4a 0.4,0.4 0 0 1 0.4,-0.4L 19.6 22a 0.4,0.4 0 0 1 0.4,0.4L 20 23.6a 0.4,0.4 0 0 1 -0.4,0.4L 19.4 24a 0.4,0.4 0 0 1 -0.4,-0.4z M 28 23.4a 0.4,0.4 0 0 1 0.4,-0.4L 28.6 23a 0.4,0.4 0 0 1 0.4,0.4L 29 23.6a 0.4,0.4 0 0 1 -0.4,0.4L 28.4 24a 0.4,0.4 0 0 1 -0.4,-0.4z M 14 24.4a 0.4,0.4 0 0 1 0.4,-0.4L 15.6 24a 0.4,0.4 0 0 1 0.4,0.4L 16 24.6a 0.4,0.4 0 0 1 -0.4,0.4L 14.4 25a 0.4,0.4 0 0 1 -0.4,-0.4z M 17 24.4a 0.4,0.4 0 0 1 0.4,-0.4L 17.6 24a 0.4,0.4 0 0 1 0.4,0.4L 18 24.6a 0.4,0.4 0 0 0 0.4,0.4L 18.6 25a 0.4,0.4 0 0 1 0.4,0.4L 19 25.6a 0.4,0.4 0 0 1 -0.4,0.4L 18.4 26a 0.4,0.4 0 0 0 -0.4,0.4L 18 26.6a 0.4,0.4 0 0 1 -0.4,0.4L 15.4 27a 0.4,0.4 0 0 1 -0.4,-0.4L 15 26.4a 0.4,0.4 0 0 1 0.4,-0.4L 15.6 26a 0.4,0.4 0 0 0 0.4,-0.4L 16 25.4a 0.4,0.4 0 0 1 0.4,-0.4L 16.6 25a 0.4,0.4 0 0 0 0.4,-0.4z M 26 24.4a 0.4,0.4 0 0 1 0.4,-0.4L 27.6 24a 0.4,0.4 0 0 1 0.4,0.4L 28 24.6a 0.4,0.4 0 0 0 0.4,0.4L 28.6 25a 0.4,0.4 0 0 1 0.4,0.4L 29 25.6a 0.4,0.4 0 0 1 -0.4,0.4L 28.4 26a 0.4,0.4 0 0 0 -0.4,0.4L 28 27.6a 0.4,0.4 0 0 1 -0.4,0.4L 27.4 28a 0.4,0.4 0 0 1 -0.4,-0.4L 27 27.4a 0.4,0.4 0 0 0 -0.4,-0.4L 26.4 27a 0.4,0.4 0 0 0 -0.4,0.4L 26 27.6a 0.4,0.4 0 0 0 0.4,0.4L 26.6 28a 0.4,0.4 0 0 1 0.4,0.4L 27 28.6a 0.4,0.4 0 0 1 -0.4,0.4L 23.4 29a 0.4,0.4 0 0 1 -0.4,-0.4L 23 28.4a 0.4,0.4 0 0 1 0.4,-0.4L 23.6 28a 0.4,0.4 0 0 0 0.4,-0.4L 24 26.4a 0.4,0.4 0 0 1 0.4,-0.4L 24.6 26a 0.4,0.4 0 0 0 0.4,-0.4L 25 25.4a 0.4,0.4 0 0 1 0.4,-0.4L 25.6 25a 0.4,0.4 0 0 0 0.4,-0.4z M 10 25.4a 0.4,0.4 0 0 1 0.4,-0.4L 10.6 25a 0.4,0.4 0 0 1 0.4,0.4L 11 25.6a 0.4,0.4 0 0 1 -0.4,0.4L 10.4 26a 0.4,0.4 0 0 1 -0.4,-0.4z M 20 25.4a 0.4,0.4 0 0 1 0.4,-0.4L 20.6 25a 0.4,0.4 0 0 1 0.4,0.4L 21 25.6a 0.4,0.4 0 0 1 -0.4,0.4L 20.4 26a 0.4,0.4 0 0 1 -0.4,-0.4z M 21 26.4a 0.4,0.4 0 0 1 0.4,-0.4L 22.6 26a 0.4,0.4 0 0 1 0.4,0.4L 23 26.6a 0.4,0.4 0 0 1 -0.4,0.4L 21.4 27a 0.4,0.4 0 0 1 -0.4,-0.4z M 14 27.4a 0.4,0.4 0 0 1 0.4,-0.4L 14.6 27a 0.4,0.4 0 0 1 0.4,0.4L 15 27.6a 0.4,0.4 0 0 1 -0.4,0.4L 14.4 28a 0.4,0.4 0 0 1 -0.4,-0.4z M 18 27.4a 0.4,0.4 0 0 1 0.4,-0.4L 20.6 27a 0.4,0.4 0 0 1 0.4,0.4L 21 27.6a 0.4,0.4 0 0 1 -0.4,0.4L 20.4 28a 0.4,0.4 0 0 0 -0.4,0.4L 20 28.6a 0.4,0.4 0 0 1 -0.4,0.4L 19.4 29a 0.4,0.4 0 0 1 -0.4,-0.4L 19 28.4a 0.4,0.4 0 0 0 -0.4,-0.4L 18.4 28a 0.4,0.4 0 0 1 -0.4,-0.4z M 15 28.4a 0.4,0.4 0 0 1 0.4,-0.4L 16.6 28a 0.4,0.4 0 0 1 0.4,0.4L 17 28.6a 0.4,0.4 0 0 1 -0.4,0.4L 15.4 29a 0.4,0.4 0 0 1 -0.4,-0.4z"></path><path id="qr squares" d="M1.05,0h4.9a1.05,1.05 0 0 1 1.05,1.05v4.9a1.05,1.05 0 0 1 -1.05,1.05h-4.9a1.05,1.05 0 0 1 -1.05,-1.05v-4.9a1.05,1.05 0 0 1 1.05,-1.05zM1.75,1h3.5a0.75,0.75 0 0 1 0.75,0.75v3.5a0.75,0.75 0 0 1 -0.75,0.75h-3.5a0.75,0.75 0 0 1 -0.75,-0.75v-3.5a0.75,0.75 0 0 1 0.75,-0.75zM2.45,2h2.1a0.44999999999999996,0.44999999999999996 0 0 1 0.44999999999999996,0.44999999999999996v2.1a0.44999999999999996,0.44999999999999996 0 0 1 -0.44999999999999996,0.44999999999999996h-2.1a0.44999999999999996,0.44999999999999996 0 0 1 -0.44999999999999996,-0.44999999999999996v-2.1a0.44999999999999996,0.44999999999999996 0 0 1 0.44999999999999996,-0.44999999999999996z M23.05,0h4.9a1.05,1.05 0 0 1 1.05,1.05v4.9a1.05,1.05 0 0 1 -1.05,1.05h-4.9a1.05,1.05 0 0 1 -1.05,-1.05v-4.9a1.05,1.05 0 0 1 1.05,-1.05zM23.75,1h3.5a0.75,0.75 0 0 1 0.75,0.75v3.5a0.75,0.75 0 0 1 -0.75,0.75h-3.5a0.75,0.75 0 0 1 -0.75,-0.75v-3.5a0.75,0.75 0 0 1 0.75,-0.75zM24.45,2h2.1a0.44999999999999996,0.44999999999999996 0 0 1 0.44999999999999996,0.44999999999999996v2.1a0.44999999999999996,0.44999999999999996 0 0 1 -0.44999999999999996,0.44999999999999996h-2.1a0.44999999999999996,0.44999999999999996 0 0 1 -0.44999999999999996,-0.44999999999999996v-2.1a0.44999999999999996,0.44999999999999996 0 0 1 0.44999999999999996,-0.44999999999999996z M1.05,22h4.9a1.05,1.05 0 0 1 1.05,1.05v4.9a1.05,1.05 0 0 1 -1.05,1.05h-4.9a1.05,1.05 0 0 1 -1.05,-1.05v-4.9a1.05,1.05 0 0 1 1.05,-1.05zM1.75,23h3.5a0.75,0.75 0 0 1 0.75,0.75v3.5a0.75,0.75 0 0 1 -0.75,0.75h-3.5a0.75,0.75 0 0 1 -0.75,-0.75v-3.5a0.75,0.75 0 0 1 0.75,-0.75zM2.45,24h2.1a0.44999999999999996,0.44999999999999996 0 0 1 0.44999999999999996,0.44999999999999996v2.1a0.44999999999999996,0.44999999999999996 0 0 1 -0.44999999999999996,0.44999999999999996h-2.1a0.44999999999999996,0.44999999999999996 0 0 1 -0.44999999999999996,-0.44999999999999996v-2.1a0.44999999999999996,0.44999999999999996 0 0 1 0.44999999999999996,-0.44999999999999996zM20.75,20h3.5a0.75,0.75 0 0 1 0.75,0.75v3.5a0.75,0.75 0 0 1 -0.75,0.75h-3.5a0.75,0.75 0 0 1 -0.75,-0.75v-3.5a0.75,0.75 0 0 1 0.75,-0.75zM21.45,21h2.1a0.44999999999999996,0.44999999999999996 0 0 1 0.44999999999999996,0.44999999999999996v2.1a0.44999999999999996,0.44999999999999996 0 0 1 -0.44999999999999996,0.44999999999999996h-2.1a0.44999999999999996,0.44999999999999996 0 0 1 -0.44999999999999996,-0.44999999999999996v-2.1a0.44999999999999996,0.44999999999999996 0 0 1 0.44999999999999996,-0.44999999999999996zM22.15,22h0.7a0.15,0.15 0 0 1 0.15,0.15v0.7a0.15,0.15 0 0 1 -0.15,0.15h-0.7a0.15,0.15 0 0 1 -0.15,-0.15v-0.7a0.15,0.15 0 0 1 0.15,-0.15z" fill-rule="evenodd" fill-opacity="1" fill="rgb(0, 0, 0)"></path></svg>